<?xml version="1.0" encoding="UTF-8"?>
<svg width="28px" height="28px" viewBox="0 0 28 28" version="1.1" xmlns="http://www.w3.org/2000/svg" xmlns:xlink="http://www.w3.org/1999/xlink">
    <!-- Generator: Sketch 55.1 (78136) - https://sketchapp.com -->
    <title>ic/enlarge</title>
    <desc>Created with Sketch.</desc>
    <defs>
        <rect id="path-1" x="0" y="0" width="28" height="28"></rect>
    </defs>
    <g id="ic/enlarge" stroke="none" stroke-width="1" fill="none" fill-rule="evenodd">
        <mask id="mask-2" fill="white">
            <use xlink:href="#path-1"></use>
        </mask>
        <g id="蒙版"></g>
        <path d="M21.5355339,5 L17.4497475,5 C17.1736051,5 16.9497475,4.77614237 16.9497475,4.5 L16.9497475,3.5 C16.9497475,3.22385763 17.1736051,3 17.4497475,3 L23.9497475,3 C24.5020322,3 24.9497475,3.44771525 24.9497475,4 L24.9497475,10.5 C24.9497475,10.7761424 24.7258898,11 24.4497475,11 L23.4497475,11 C23.1736051,11 22.9497475,10.7761424 22.9497475,10.5 L22.9497475,6.41421356 L16.767767,12.5961941 C16.5725048,12.7914562 16.2559223,12.7914562 16.0606602,12.5961941 L15.3535534,11.8890873 C15.1582912,11.6938252 15.1582912,11.3772427 15.3535534,11.1819805 L21.5355339,5 Z M6.41421356,22.9497475 L10.5,22.9497475 C10.7761424,22.9497475 11,23.1736051 11,23.4497475 L11,24.4497475 C11,24.7258898 10.7761424,24.9497475 10.5,24.9497475 L4,24.9497475 C3.44771525,24.9497475 3,24.5020322 3,23.9497475 L3,17.4497475 C3,17.1736051 3.22385763,16.9497475 3.5,16.9497475 L4.5,16.9497475 C4.77614237,16.9497475 5,17.1736051 5,17.4497475 L5,21.5355339 L11.1819805,15.3535534 C11.3772427,15.1582912 11.6938252,15.1582912 11.8890873,15.3535534 L12.5961941,16.0606602 C12.7914562,16.2559223 12.7914562,16.5725048 12.5961941,16.767767 L6.41421356,22.9497475 Z" id="形状" fill="#8C8C8C" mask="url(#mask-2)"></path>
    </g>
</svg>