<?xml version="1.0" encoding="UTF-8"?>
<svg width="28px" height="28px" viewBox="0 0 28 28" version="1.1" xmlns="http://www.w3.org/2000/svg" xmlns:xlink="http://www.w3.org/1999/xlink">
    <!-- Generator: Sketch 55.1 (78136) - https://sketchapp.com -->
    <title>ic/narrow</title>
    <desc>Created with Sketch.</desc>
    <defs>
        <rect id="path-1" x="0" y="0" width="28" height="28"></rect>
    </defs>
    <g id="ic/narrow" stroke="none" stroke-width="1" fill="none" fill-rule="evenodd">
        <mask id="mask-2" fill="white">
            <use xlink:href="#path-1"></use>
        </mask>
        <g id="蒙版"></g>
        <path d="M18.6213203,10.7426407 L22.7071068,10.7426407 C22.9832492,10.7426407 23.2071068,10.9664983 23.2071068,11.2426407 L23.2071068,12.2426407 C23.2071068,12.5187831 22.9832492,12.7426407 22.7071068,12.7426407 L16.2071068,12.7426407 C15.654822,12.7426407 15.2071068,12.2949254 15.2071068,11.7426407 L15.2071068,5.24264069 C15.2071068,4.96649831 15.4309644,4.74264069 15.7071068,4.74264069 L16.7071068,4.74264069 C16.9832492,4.74264069 17.2071068,4.96649831 17.2071068,5.24264069 L17.2071068,9.32842712 L23.3890873,3.14644661 C23.5843494,2.95118446 23.9009319,2.95118446 24.0961941,3.14644661 L24.8033009,3.85355339 C24.998563,4.04881554 24.998563,4.36539803 24.8033009,4.56066017 L18.6213203,10.7426407 Z M9.32842712,17.2071068 L5.24264069,17.2071068 C4.96649831,17.2071068 4.74264069,16.9832492 4.74264069,16.7071068 L4.74264069,15.7071068 C4.74264069,15.4309644 4.96649831,15.2071068 5.24264069,15.2071068 L11.7426407,15.2071068 C12.2949254,15.2071068 12.7426407,15.654822 12.7426407,16.2071068 L12.7426407,22.7071068 C12.7426407,22.9832492 12.5187831,23.2071068 12.2426407,23.2071068 L11.2426407,23.2071068 C10.9664983,23.2071068 10.7426407,22.9832492 10.7426407,22.7071068 L10.7426407,18.6213203 L4.56066017,24.8033009 C4.36539803,24.998563 4.04881554,24.998563 3.85355339,24.8033009 L3.14644661,24.0961941 C2.95118446,23.9009319 2.95118446,23.5843494 3.14644661,23.3890873 L9.32842712,17.2071068 Z" id="形状" fill="#8C8C8C" mask="url(#mask-2)"></path>
    </g>
</svg>