<?xml version="1.0" encoding="UTF-8"?>
<svg width="28px" height="28px" viewBox="0 0 28 28" version="1.1" xmlns="http://www.w3.org/2000/svg" xmlns:xlink="http://www.w3.org/1999/xlink">
    <!-- Generator: Sketch 59.1 (86144) - https://sketch.com -->
    <title>ic/success</title>
    <desc>Created with Sketch.</desc>
    <defs>
        <rect id="path-1" x="0" y="0" width="28" height="28"></rect>
        <path d="M14,0 C21.7319865,0 28,6.2680135 28,14 C28,21.7319865 21.7319865,28 14,28 C6.2680135,28 0,21.7319865 0,14 C0,6.2680135 6.2680135,0 14,0 Z M20.495689,8.35355339 C20.3004269,8.15829124 19.9838444,8.15829124 19.7885822,8.35355339 L19.7885822,8.35355339 L11.6561471,16.4845743 L7.76776695,12.5961941 C7.57250481,12.4009319 7.25592232,12.4009319 7.06066017,12.5961941 L7.06066017,12.5961941 L6.35355339,13.3033009 C6.15829124,13.498563 6.15829124,13.8151455 6.35355339,14.0104076 L6.35355339,14.0104076 L10.9497475,18.6066017 C11.3402718,18.997126 11.9734367,18.997126 12.363961,18.6066017 L12.363961,18.6066017 L13.0710678,17.8994949 L13.0703607,17.8987878 L21.2027958,9.76776695 C21.3980579,9.57250481 21.3980579,9.25592232 21.2027958,9.06066017 L21.2027958,9.06066017 Z" id="path-3"></path>
    </defs>
    <g id="ic/success" stroke="none" stroke-width="1" fill="none" fill-rule="evenodd">
        <mask id="mask-2" fill="white">
            <use xlink:href="#path-1"></use>
        </mask>
        <g id="蒙版"></g>
        <mask id="mask-4" fill="white">
            <use xlink:href="#path-3"></use>
        </mask>
        <use id="形状结合" fill="#46BD5E" xlink:href="#path-3"></use>
    </g>
</svg>