<?xml version="1.0" encoding="UTF-8"?>
<svg width="28px" height="28px" viewBox="0 0 28 28" version="1.1" xmlns="http://www.w3.org/2000/svg" xmlns:xlink="http://www.w3.org/1999/xlink">
    <!-- Generator: Sketch 55.1 (78136) - https://sketchapp.com -->
    <title>icon_edit</title>
    <desc>Created with Sketch.</desc>
    <g id="icon_edit" stroke="none" stroke-width="1" fill="none" fill-rule="evenodd">
        <path d="M3,2 L25,2 C25.5522847,2 26,2.44771525 26,3 L26,25 C26,25.5522847 25.5522847,26 25,26 L3,26 C2.44771525,26 2,25.5522847 2,25 L2,3 C2,2.44771525 2.44771525,2 3,2 Z M6.5,6.5 C6.22385763,6.5 6,6.72385763 6,7 L6,9 C6,9.27614237 6.22385763,9.5 6.5,9.5 L8.5,9.5 C8.77614237,9.5 9,9.27614237 9,9 L9,7 C9,6.72385763 8.77614237,6.5 8.5,6.5 L6.5,6.5 Z M6.5,12.5 C6.22385763,12.5 6,12.7238576 6,13 L6,15 C6,15.2761424 6.22385763,15.5 6.5,15.5 L8.5,15.5 C8.77614237,15.5 9,15.2761424 9,15 L9,13 C9,12.7238576 8.77614237,12.5 8.5,12.5 L6.5,12.5 Z M6.5,18.5 C6.22385763,18.5 6,18.7238576 6,19 L6,21 C6,21.2761424 6.22385763,21.5 6.5,21.5 L8.5,21.5 C8.77614237,21.5 9,21.2761424 9,21 L9,19 C9,18.7238576 8.77614237,18.5 8.5,18.5 L6.5,18.5 Z M12.5,6.5 C12.2238576,6.5 12,6.72385763 12,7 L12,9 C12,9.27614237 12.2238576,9.5 12.5,9.5 L21.5,9.5 C21.7761424,9.5 22,9.27614237 22,9 L22,7 C22,6.72385763 21.7761424,6.5 21.5,6.5 L12.5,6.5 Z M12.5,12.5 C12.2238576,12.5 12,12.7238576 12,13 L12,15 C12,15.2761424 12.2238576,15.5 12.5,15.5 L21.5,15.5 C21.7761424,15.5 22,15.2761424 22,15 L22,13 C22,12.7238576 21.7761424,12.5 21.5,12.5 L12.5,12.5 Z M12.5,18.5 C12.2238576,18.5 12,18.7238576 12,19 L12,21 C12,21.2761424 12.2238576,21.5 12.5,21.5 L21.5,21.5 C21.7761424,21.5 22,21.2761424 22,21 L22,19 C22,18.7238576 21.7761424,18.5 21.5,18.5 L12.5,18.5 Z" id="形状" fill="#FFFFFF"></path>
    </g>
</svg>